<?xml version="1.0" encoding="UTF-8"?>
<svg id="Layer_1" xmlns="http://www.w3.org/2000/svg" version="1.1" viewBox="0 0 117.24 117.24">
  <!-- Generator: Adobe Illustrator 29.2.1, SVG Export Plug-In . SVG Version: 2.1.0 Build 116)  -->
  <defs>
    <style>
      .st0 {
        fill: none;
        stroke: #426ae3;
        stroke-linecap: round;
        stroke-linejoin: round;
        stroke-width: 4.8px;
      }
    </style>
  </defs>
  <circle cx="58.62" cy="58.62" r="58.62"/>
  <path class="st0" d="M44.19,60.92v-8.64c.38-1.06.55-1.17,1.65-1.17h6.44v-.86c.03-2.5-.03-4.97.17-7.44.31-3.29,1.65-6.14,4.25-8.26,2.13-1.75,4.66-2.57,7.37-2.67,2.5-.1,5.01-.03,7.51-.03,1.17,0,1.47.31,1.47,1.47v7.27c0,1.23-.31,1.54-1.54,1.58-1.78.03-3.57,0-5.35.07-1.61.03-2.5.79-2.57,2.37-.1,2.09,0,4.18,0,6.27,0,0,.07.07.1.14h7.54c1.2,0,1.54.38,1.54,1.58v7.99c0,1.1-.31,1.41-1.41,1.41h-7.85v21.56c0,.79-.03,1.54-.96,1.85h-9.43c-.79-.27-.93-.89-.93-1.65v-21.7h-6.41c-1.13,0-1.3-.14-1.68-1.13h.07Z"/>
</svg>