<?xml version="1.0" encoding="UTF-8"?>
<svg id="Layer_1" xmlns="http://www.w3.org/2000/svg" xmlns:xlink="http://www.w3.org/1999/xlink" version="1.1" viewBox="0 0 117.43 117.43">
  <!-- Generator: Adobe Illustrator 29.2.1, SVG Export Plug-In . SVG Version: 2.1.0 Build 116)  -->
  <defs>
    <style>
      .st0 {
        fill: #fff;
      }

      .st1 {
        fill: #3a80f2;
      }

      .st2 {
        fill: url(#Degradado_sin_nombre_3);
      }

      .st3 {
        fill: url(#Degradado_sin_nombre_2);
      }
    </style>
    <linearGradient id="Degradado_sin_nombre_3" data-name="Degradado sin nombre 3" x1="36.42" y1="1215.36" x2="90.61" y2="1218.1" gradientTransform="translate(0 -1158)" gradientUnits="userSpaceOnUse">
      <stop offset="0" stop-color="#2c65d8"/>
      <stop offset=".4" stop-color="#2c65d8"/>
      <stop offset=".83" stop-color="#3373e5"/>
      <stop offset="1" stop-color="#3b81f2"/>
    </linearGradient>
    <linearGradient id="Degradado_sin_nombre_2" data-name="Degradado sin nombre 2" x1="30.69" y1="1228.62" x2="30.69" y2="1208.64" gradientTransform="translate(0 -1158)" gradientUnits="userSpaceOnUse">
      <stop offset="0" stop-color="#3b81f2"/>
      <stop offset="1" stop-color="#2c65d7"/>
    </linearGradient>
  </defs>
  <circle class="st0" cx="58.71" cy="58.71" r="58.71"/>
  <g>
    <path class="st1" d="M27.86,67.06c0,3.01.66,5.31,1.52,6.71.94,1.62,2.67,2.61,4.54,2.6,2.22,0,4.25-.55,8.15-5.96,3.13-4.33,6.82-10.4,9.31-14.23l4.2-6.46c2.92-4.49,6.3-9.47,10.18-12.86,3.16-2.75,6.57-4.28,10.01-4.28,5.77,0,11.26,3.34,15.47,9.61,4.6,6.86,6.84,15.51,6.84,24.43,0,5.3-1.05,9.2-2.82,12.28-1.72,2.98-5.08,5.95-10.71,5.95v-8.49c4.83,0,6.02-4.43,6.02-9.51,0-7.23-1.69-15.26-5.4-20.99-2.64-4.07-6.05-6.55-9.81-6.55-4.06,0-7.34,3.07-11.01,8.53-1.95,2.9-3.96,6.44-6.21,10.44l-2.48,4.38c-4.98,8.83-6.24,10.84-8.73,14.16-4.36,5.84-8.09,8.03-12.99,8.03-5.82,0-9.5-2.52-11.77-6.32-1.87-3.1-2.79-7.16-2.79-11.79l8.5.31Z"/>
    <path class="st2" d="M26.06,42.78c3.9-6.01,9.52-10.21,15.97-10.21,3.74,0,7.45,1.09,11.33,4.27,4.24,3.46,8.76,9.16,14.41,18.56l2.02,3.37c4.88,8.13,7.66,12.32,9.29,14.29,2.09,2.53,3.56,3.28,5.46,3.28,4.83,0,6.02-4.43,6.02-9.51l7.5-.24c0,5.3-1.05,9.2-2.82,12.28-1.7,2.98-5.06,5.96-10.7,5.96-3.5,0-6.61-.76-10.04-4-2.64-2.49-5.72-6.9-8.1-10.87l-7.06-11.79c-3.54-5.92-6.79-10.33-8.67-12.32-2.03-2.16-4.62-4.75-8.77-4.75-3.36,0-6.21,2.36-8.6,5.96l-7.24-4.3Z"/>
    <path class="st3" d="M41.89,41.12c-3.36,0-6.21,2.36-8.6,5.96-3.37,5.09-5.44,12.68-5.44,19.98,0,3.01.66,5.31,1.52,6.71l-7.25,4.76c-1.86-3.1-2.78-7.16-2.78-11.79,0-8.42,2.31-17.19,6.7-23.96,3.9-6.01,9.52-10.21,15.97-10.21l-.14,8.55Z"/>
  </g>
</svg>