<?xml version="1.0" encoding="UTF-8"?>
<svg id="Layer_1" xmlns="http://www.w3.org/2000/svg" version="1.1" viewBox="0 0 117.24 117.24">
  <!-- Generator: Adobe Illustrator 29.2.1, SVG Export Plug-In . SVG Version: 2.1.0 Build 116)  -->
  <defs>
    <style>
      .st0 {
        fill: #e73323;
      }

      .st1 {
        fill: #fff;
      }
    </style>
  </defs>
  <circle class="st1" cx="58.62" cy="58.62" r="58.62"/>
  <g>
    <path class="st0" d="M92.89,41.38c-.82-3.07-3.23-5.48-6.3-6.3-5.55-1.49-27.82-1.49-27.82-1.49,0,0-22.27,0-27.82,1.49-3.07.82-5.48,3.23-6.3,6.3-1.49,5.55-1.49,17.14-1.49,17.14,0,0,0,11.59,1.49,17.14.82,3.07,3.23,5.48,6.3,6.3,5.55,1.49,27.82,1.49,27.82,1.49,0,0,22.27,0,27.82-1.49,3.07-.82,5.48-3.23,6.3-6.3,1.49-5.55,1.49-17.14,1.49-17.14,0,0,0-11.59-1.49-17.14Z"/>
    <path class="st1" d="M51.64,69.2l18.5-10.68-18.5-10.68v21.36Z"/>
  </g>
</svg>