<?xml version="1.0" encoding="UTF-8"?>
<svg id="Layer_1" xmlns="http://www.w3.org/2000/svg" version="1.1" viewBox="0 0 117.24 117.24">
  <!-- Generator: Adobe Illustrator 29.2.1, SVG Export Plug-In . SVG Version: 2.1.0 Build 116)  -->
  <defs>
    <style>
      .st0 {
        fill: none;
        stroke: #426ae3;
        stroke-linecap: round;
        stroke-linejoin: round;
        stroke-width: 5.36px;
      }
    </style>
  </defs>
  <circle cx="58.62" cy="58.62" r="58.62"/>
  <path class="st0" d="M58.49,34.75c7.03.06,14.06.24,21.08.55,1.66.07,3.32.29,4.95.59,3.95.73,6.48,3.38,7.23,7.53,1.03,5.73,1.24,11.53,1.05,17.33-.13,4.05-.53,8.1-.92,12.14-.29,2.99-1.49,5.53-4.12,7.22-1.59,1.02-3.39,1.31-5.22,1.51-7.08.75-14.18.91-21.29.88-7.13-.04-14.25-.25-21.38-.48-2.32-.08-4.64-.37-6.94-.71-3.88-.58-6.64-3.23-7.31-7.24-.51-3.06-.8-6.17-1.02-9.27-.36-5.01-.25-10.03.15-15.03.19-2.34.45-4.69.94-6.98.86-4.11,3.73-6.58,7.88-7.09,5.6-.7,11.29-.94,16.94-.97,2.66-.01,5.32,0,7.98.02ZM51.85,68.83c5.94-3.42,11.81-6.8,17.78-10.24-5.97-3.44-11.85-6.82-17.78-10.24v20.48Z"/>
</svg>